<?xml version="1.0" standalone="no"?>
<!DOCTYPE svg PUBLIC "-//W3C//DTD SVG 20010904//EN"
 "http://www.w3.org/TR/2001/REC-SVG-20010904/DTD/svg10.dtd">
<svg version="1.0" xmlns="http://www.w3.org/2000/svg"
 width="261.000000pt" height="261.000000pt" viewBox="0 0 261.000000 261.000000"
 preserveAspectRatio="xMidYMid meet">
<metadata>
Created by potrace 1.14, written by Peter Selinger 2001-2017
</metadata>
<g transform="translate(0.000000,261.000000) scale(0.100000,-0.100000)"
fill="#000000" stroke="none">
<path d="M1263 2521 c-22 -16 -50 -42 -62 -57 -13 -16 -75 -83 -139 -149 -65
-66 -171 -176 -237 -245 -65 -69 -180 -188 -255 -265 -421 -436 -498 -521
-506 -560 -9 -49 10 -109 43 -134 32 -26 98 -28 133 -3 14 9 131 127 260 262
241 252 346 361 604 630 82 85 166 172 187 194 l36 38 209 -238 c115 -130 294
-334 398 -453 103 -119 219 -250 256 -291 37 -41 91 -102 119 -135 59 -67 83
-84 124 -85 84 -1 141 96 108 183 -6 14 -74 98 -153 188 -170 193 -516 587
-790 900 -108 124 -209 231 -223 237 -41 19 -69 14 -112 -17z"/>
<path d="M1282 1803 c-18 -10 -127 -121 -243 -248 -581 -633 -685 -748 -696
-768 -9 -16 -12 -101 -13 -298 0 -271 0 -277 23 -310 13 -19 38 -39 57 -46 50
-17 1790 -17 1840 0 20 7 44 27 58 47 23 34 23 35 20 320 l-3 286 -35 40 c-19
22 -227 250 -463 506 -472 514 -468 512 -545 471z m428 -731 l370 -402 0 -135
0 -135 -750 0 -750 0 0 133 0 133 372 407 c205 224 376 406 380 405 4 -2 174
-184 378 -406z"/>
</g>
</svg>
